<svg width="66" height="64" viewBox="0 0 66 64" fill="none" xmlns="http://www.w3.org/2000/svg">
<path d="M15.6364 59.3152H11.1891C10.1965 59.3152 9.39732 58.516 9.39732 57.5234C9.39732 56.5309 10.1965 55.7317 11.1891 55.7317H15.6364C16.629 55.7317 17.4282 56.5309 17.4282 57.5234C17.4282 58.516 16.629 59.3152 15.6364 59.3152Z" fill="#F0BF5F"/>
<path d="M64.2083 59.3152H59.4903C58.4977 59.3152 57.6985 58.516 57.6985 57.5234C57.6985 56.5309 58.4977 55.7317 59.4903 55.7317H64.2083C65.2009 55.7317 66.0001 56.5309 66.0001 57.5234C66.0001 58.516 65.2009 59.3152 64.2083 59.3152Z" fill="#F0BF5F"/>
<path d="M62.236 59.0961H59.4903C58.4977 59.0961 57.6985 58.2969 57.6985 57.3043C57.6985 56.3117 58.4977 55.5125 59.4903 55.5125H60.4442V54.7262C60.4442 51.0652 58.8844 48.1133 55.9325 46.1797C53.7797 44.7746 51.0469 44.027 48.0305 44.027H21.9012C19.5165 44.027 17.4282 45.7156 16.9383 48.0617L15.3657 55.5125H15.9071C16.8997 55.5125 17.6989 56.3117 17.6989 57.3043C17.6989 58.2969 16.8997 59.0961 15.9071 59.0961H13.1614C12.62 59.0961 12.1043 58.8512 11.7692 58.4387C11.434 58.0133 11.2922 57.4719 11.4083 56.9434L13.4321 47.327C14.27 43.3437 17.8407 40.4434 21.9141 40.4434H48.0434C51.7559 40.4434 55.1719 41.3844 57.9047 43.1762C61.8622 45.7672 64.0407 49.8664 64.0407 54.7262V57.3043C64.0278 58.2969 63.2286 59.0961 62.236 59.0961Z" fill="#F0BF5F"/>
<path d="M41.959 59.0961H28.282C27.2895 59.0961 26.4902 58.2969 26.4902 57.3043C26.4902 56.3117 27.2895 55.5125 28.282 55.5125H41.9719C42.9645 55.5125 43.7637 56.3117 43.7637 57.3043C43.7637 58.2969 42.9516 59.0961 41.959 59.0961Z" fill="#F0BF5F"/>
<path d="M48.0304 42.2352C50.7375 42.2352 53.2769 42.7895 55.4297 43.8465L52.916 32.9539C52.2199 30.2984 49.8094 28.4422 47.0637 28.4422H31.0922C28.643 28.4422 26.4387 29.9117 25.5105 32.1805L21.7594 42.2352H48.0304Z" fill="#CEE8FA"/>
<path d="M55.4296 45.6383C55.1589 45.6383 54.8882 45.5738 54.6433 45.4578C52.7355 44.5297 50.4411 44.027 48.0305 44.027L21.7593 44.0269C21.1664 44.0269 20.625 43.7434 20.2898 43.2535C19.9546 42.7766 19.8773 42.1578 20.0836 41.6035L23.8347 31.5488C23.8476 31.523 23.8476 31.5102 23.8605 31.4844C25.0722 28.5453 27.9211 26.6375 31.105 26.6375H47.0765C50.6343 26.6375 53.7539 29.0352 54.6562 32.477C54.6562 32.4898 54.6691 32.5156 54.6691 32.5285L57.1828 43.4211C57.3375 44.0914 57.0925 44.8004 56.5511 45.2258C56.2289 45.5094 55.8293 45.6383 55.4296 45.6383ZM24.3504 40.4434L48.0434 40.4434C49.745 40.4434 51.3949 40.6496 52.9546 41.0492L51.1886 33.3922C50.6859 31.5359 48.9972 30.2469 47.0765 30.2469H31.0921C29.3777 30.2469 27.8437 31.2652 27.1734 32.8508L24.3504 40.4434Z" fill="#F0BF5F"/>
<path d="M41.9589 51.568C40.9664 51.568 40.1671 50.7687 40.1671 49.7762V29.1254C40.1671 28.1328 40.9664 27.3336 41.9589 27.3336C42.9515 27.3336 43.7507 28.1328 43.7507 29.1254V49.7633C43.7507 50.7687 42.9515 51.568 41.9589 51.568Z" fill="#F0BF5F"/>
<path d="M54.4629 63.8656C50.5442 63.8656 47.3602 60.6816 47.3602 56.7629C47.3602 52.8441 50.5442 49.6602 54.4629 49.6602C58.3817 49.6602 61.5657 52.8441 61.5657 56.7629C61.5657 60.6816 58.3817 63.8656 54.4629 63.8656ZM54.4629 53.2437C52.5293 53.2437 50.9438 54.8164 50.9438 56.7629C50.9438 58.7094 52.5164 60.282 54.4629 60.282C56.3965 60.282 57.9821 58.7094 57.9821 56.7629C57.9821 54.8164 56.3965 53.2437 54.4629 53.2437Z" fill="#2D527C"/>
<path d="M20.8441 63.8656C16.9253 63.8656 13.7414 60.6817 13.7414 56.7629C13.7414 52.8441 16.9253 49.6602 20.8441 49.6602C24.7628 49.6602 27.9468 52.8441 27.9468 56.7629C27.9597 60.6817 24.7628 63.8656 20.8441 63.8656ZM20.8441 53.2438C18.8976 53.2438 17.3249 54.8164 17.3249 56.7629C17.3249 58.7094 18.8976 60.282 20.8441 60.282C22.7906 60.282 24.3632 58.7094 24.3632 56.7629C24.3632 54.8164 22.7906 53.2438 20.8441 53.2438Z" fill="#2D527C"/>
<path d="M24.3891 24.7168H1.7918C0.799219 24.7168 0 23.9176 0 22.925V1.92617C0 0.933588 0.799219 0.134369 1.7918 0.134369H24.3891C25.3816 0.134369 26.1809 0.933588 26.1809 1.92617V22.925C26.1809 23.9176 25.3816 24.7168 24.3891 24.7168ZM3.58359 21.1332H22.5973V3.71796H3.58359V21.1332Z" fill="#2D527C"/>
<path d="M13.3289 6.25742H9.99025C9.30705 6.25742 8.79142 6.6957 8.79142 7.28867V17.5496C8.79142 18.1684 9.42306 18.5937 10.3125 18.5937C11.2149 18.5937 11.8336 18.1684 11.8336 17.5496V14.3398H13.1613C15.8555 14.3398 17.4024 12.8832 17.4024 10.3309V10.2535C17.4024 7.67539 15.9586 6.25742 13.3289 6.25742ZM13.1613 11.8519H11.8336V8.99023H13.1613C13.9606 8.99023 14.3473 9.42851 14.3473 10.3309V10.5113C14.3473 11.4137 13.9606 11.8519 13.1613 11.8519Z" fill="#2D527C"/>
<path d="M13.0839 39.7988C12.0914 39.7988 11.2921 38.9996 11.2921 38.007V23.157C11.2921 22.1644 12.0914 21.3652 13.0839 21.3652C14.0765 21.3652 14.8757 22.1644 14.8757 23.157V38.007C14.8886 38.9996 14.0765 39.7988 13.0839 39.7988Z" fill="#2D527C"/>
</svg>
