<svg width="64" height="58" viewBox="0 0 64 58" fill="none" xmlns="http://www.w3.org/2000/svg">
<path d="M58.2375 57.2692H49.4375C48.5 57.2692 47.7375 56.4828 47.7375 55.516C47.7375 54.5492 48.5 53.7629 49.4375 53.7629H58.2375C59.55 53.7629 60.6125 52.6672 60.6125 51.3137V19.4867C60.6125 18.1332 59.55 17.0375 58.2375 17.0375H17.2375C15.925 17.0375 14.8625 18.1332 14.8625 19.4867V51.3395C14.8625 52.693 15.925 53.7887 17.2375 53.7887H40.1125C41.05 53.7887 41.8125 54.575 41.8125 55.5418C41.8125 56.5086 41.05 57.2949 40.1125 57.2949H17.2375C14.0625 57.2949 11.475 54.6266 11.475 51.3524V19.4867C11.475 16.2125 14.0625 13.5442 17.2375 13.5442H58.2375C61.4125 13.5442 64 16.2125 64 19.4867V51.3395C64 54.6008 61.4125 57.2692 58.2375 57.2692Z" fill="#2D527C"/>
<path d="M23.8375 49.1094C22.2125 49.1094 20.875 47.7301 20.875 46.0543V24.759C20.875 23.0832 22.2125 21.7039 23.8375 21.7039C25.4625 21.7039 26.8 23.0832 26.8 24.759V46.0543C26.7875 47.7301 25.4625 49.1094 23.8375 49.1094Z" fill="#CEE8FA"/>
<path d="M23.8375 50.8496C21.275 50.8496 19.1875 48.6969 19.1875 46.0543V24.759C19.1875 22.1164 21.275 19.9636 23.8375 19.9636C26.4 19.9636 28.4875 22.1164 28.4875 24.759V46.0543C28.4875 48.6969 26.4 50.8496 23.8375 50.8496ZM23.8375 23.457C23.1375 23.457 22.575 24.0371 22.575 24.759V46.0543C22.575 46.7762 23.1375 47.3562 23.8375 47.3562C24.5375 47.3562 25.1 46.7762 25.1 46.0543V24.759C25.1 24.0371 24.525 23.457 23.8375 23.457Z" fill="#F0BF5F"/>
<path d="M37.7375 49.1094C36.1125 49.1094 34.775 47.7301 34.775 46.0543V24.759C34.775 23.0832 36.1125 21.7039 37.7375 21.7039C39.3625 21.7039 40.7 23.0832 40.7 24.759V46.0543C40.7 47.7301 39.375 49.1094 37.7375 49.1094Z" fill="#CEE8FA"/>
<path d="M37.7375 50.8496C35.175 50.8496 33.0875 48.6969 33.0875 46.0543V24.759C33.0875 22.1164 35.175 19.9636 37.7375 19.9636C40.3 19.9636 42.3875 22.1164 42.3875 24.759V46.0543C42.4 48.6969 40.3125 50.8496 37.7375 50.8496ZM37.7375 23.457C37.0375 23.457 36.475 24.0371 36.475 24.759V46.0543C36.475 46.7762 37.0375 47.3562 37.7375 47.3562C38.4375 47.3562 39 46.7762 39 46.0543V24.759C39 24.0371 38.4375 23.457 37.7375 23.457Z" fill="#F0BF5F"/>
<path d="M51.65 49.1094C50.025 49.1094 48.6875 47.7301 48.6875 46.0543V24.759C48.6875 23.0832 50.025 21.7039 51.65 21.7039C53.275 21.7039 54.6125 23.0832 54.6125 24.759V46.0543C54.6125 47.7301 53.275 49.1094 51.65 49.1094Z" fill="#CEE8FA"/>
<path d="M51.65 50.8496C49.0875 50.8496 47 48.6969 47 46.0543V24.759C47 22.1164 49.0875 19.9637 51.65 19.9637C54.2125 19.9637 56.3 22.1164 56.3 24.759V46.0543C56.3 48.6969 54.2125 50.8496 51.65 50.8496ZM51.65 23.457C50.95 23.457 50.3875 24.0371 50.3875 24.759V46.0543C50.3875 46.7762 50.95 47.3563 51.65 47.3563C52.35 47.3563 52.9125 46.7762 52.9125 46.0543V24.759C52.9125 24.0371 52.35 23.457 51.65 23.457Z" fill="#F0BF5F"/>
<path d="M13.175 25.7129H7.28746C6.34996 25.7129 5.58746 24.9266 5.58746 23.9598C5.58746 22.993 6.34996 22.2066 7.28746 22.2066H13.175C14.1125 22.2066 14.875 22.993 14.875 23.9598C14.875 24.9266 14.1125 25.7129 13.175 25.7129Z" fill="#2D527C"/>
<path d="M13.175 48.5937H7.28746C6.34996 48.5937 5.58746 47.8074 5.58746 46.8406C5.58746 45.8738 6.34996 45.0875 7.28746 45.0875H13.175C14.1125 45.0875 14.875 45.8738 14.875 46.8406C14.875 47.8074 14.1125 48.5937 13.175 48.5937Z" fill="#2D527C"/>
<path d="M5.92497 28.4199C4.98747 28.4199 4.22497 27.6336 4.22497 26.6668V7.97538C4.22497 7.00858 4.98747 6.22226 5.92497 6.22226C6.86247 6.22226 7.62497 7.02148 7.62497 7.97538V26.6668C7.62497 27.6336 6.86247 28.4199 5.92497 28.4199Z" fill="#F0BF5F"/>
<path d="M5.92497 57.2691C4.98747 57.2691 4.22497 56.4828 4.22497 55.516V35.4066C4.22497 34.4398 4.98747 33.6535 5.92497 33.6535C6.86247 33.6535 7.62497 34.4398 7.62497 35.4066V55.516C7.62497 56.4828 6.86247 57.2691 5.92497 57.2691Z" fill="#2D527C"/>
<path d="M10.175 2.48397H1.70001V11.9199H10.175V2.48397Z" fill="#CEE8FA"/>
<path d="M10.1625 13.6602H1.7C0.7625 13.6602 0 12.8738 0 11.9071V2.48401C0 1.51721 0.7625 0.730881 1.7 0.730881H10.175C11.1125 0.730881 11.875 1.51721 11.875 2.48401V11.9199C11.8625 12.8738 11.1 13.6602 10.1625 13.6602ZM3.3875 10.1668H8.475V4.22424H3.3875V10.1668Z" fill="#2D527C"/>
</svg>
