<svg width="67" height="62" viewBox="0 0 67 62" fill="none" xmlns="http://www.w3.org/2000/svg">
<path d="M38.4527 16.4851H19.207C18.1758 16.4851 17.3379 15.6473 17.3379 14.616C17.3379 13.5848 18.1758 12.7469 19.207 12.7469H38.4527C39.484 12.7469 40.3219 13.5848 40.3219 14.616C40.3219 15.6473 39.484 16.4851 38.4527 16.4851Z" fill="#2D527C"/>
<path d="M23.3191 47.4871H17.3766C7.79883 47.4871 0 39.6883 0 30.1105C0 23.7683 3.45469 17.9289 9.02344 14.8738C9.92578 14.3711 11.073 14.7062 11.5758 15.6215C12.0785 16.5238 11.7434 17.6711 10.8281 18.1738C6.4582 20.5715 3.75117 25.1476 3.75117 30.1234C3.75117 37.6387 9.86133 43.7488 17.3766 43.7488H23.3191C24.3504 43.7488 25.1883 44.5867 25.1883 45.618C25.2012 46.6363 24.3504 47.4871 23.3191 47.4871Z" fill="#2D527C"/>
<path d="M24.9176 61.2027C16.3711 61.2027 9.41016 54.2418 9.41016 45.6824C9.41016 44.6512 10.248 43.8133 11.2793 43.8133C12.3105 43.8133 13.1484 44.6512 13.1484 45.6824C13.1484 52.1664 18.4207 57.4516 24.9176 57.4516C31.4145 57.4516 36.6867 52.1793 36.6867 45.6824C36.6867 39.1984 31.4145 33.9133 24.9176 33.9133C21.6563 33.9133 18.627 35.2152 16.384 37.5742C15.675 38.3219 14.4891 38.3605 13.7285 37.6387C12.9809 36.9297 12.9422 35.7437 13.6641 34.9832C16.6289 31.8637 20.625 30.1492 24.9176 30.1492C33.477 30.1492 40.4379 37.1101 40.4379 45.6695C40.4379 54.2289 33.477 61.2027 24.9176 61.2027Z" fill="#F0BF5F"/>
<path d="M49.5645 43.7875H38.1176C37.0864 43.7875 36.2485 42.9496 36.2485 41.9183C36.2485 40.8871 37.0864 40.0492 38.1176 40.0492H49.5645C50.5957 40.0492 51.4336 40.8871 51.4336 41.9183C51.4336 42.9496 50.5957 43.7875 49.5645 43.7875Z" fill="#F0BF5F"/>
<path d="M61.8105 51.3285H38.5559C37.5246 51.3285 36.6867 50.4906 36.6867 49.4593C36.6867 48.4281 37.5246 47.5902 38.5559 47.5902H61.8105C62.0555 47.5902 62.2488 47.3968 62.2488 47.1519V36.5043C62.2488 36.1433 61.9523 35.8597 61.6043 35.8597H59.9801C59.6191 35.8597 59.3355 36.1562 59.3355 36.5043V41.5058C59.3355 42.5371 58.4977 43.375 57.4664 43.375C56.4352 43.375 55.5973 42.5371 55.5973 41.5058V36.5043C55.5973 34.0808 57.5695 32.1086 59.993 32.1086H61.6172C64.0406 32.1086 66.0129 34.0808 66.0129 36.5043V47.1519C66 49.4464 64.118 51.3285 61.8105 51.3285Z" fill="#F0BF5F"/>
<path d="M24.9176 50.9418C27.865 50.9418 30.2543 48.5525 30.2543 45.6051C30.2543 42.6577 27.865 40.2683 24.9176 40.2683C21.9702 40.2683 19.5808 42.6577 19.5808 45.6051C19.5808 48.5525 21.9702 50.9418 24.9176 50.9418Z" fill="#CEE8FA"/>
<path d="M24.9176 52.8109C20.9472 52.8109 17.7117 49.5754 17.7117 45.6051C17.7117 41.6348 20.9472 38.3992 24.9176 38.3992C28.8879 38.3992 32.1234 41.6348 32.1234 45.6051C32.1234 49.5754 28.9008 52.8109 24.9176 52.8109ZM24.9176 42.1504C23.0097 42.1504 21.4629 43.6973 21.4629 45.6051C21.4629 47.5129 23.0097 49.0598 24.9176 49.0598C26.8254 49.0598 28.3722 47.5129 28.3722 45.6051C28.3722 43.6973 26.8254 42.1504 24.9176 42.1504Z" fill="#F0BF5F"/>
<path d="M27.8953 22.5695V6.6496C27.8953 4.45819 29.6742 2.67928 31.8656 2.67928H60.1476C62.3391 2.67928 64.118 4.45819 64.118 6.6496V22.5695C64.118 24.7609 62.3391 26.5398 60.1476 26.5398H31.8785C29.6742 26.5398 27.8953 24.7609 27.8953 22.5695Z" fill="#CEE8FA"/>
<path d="M60.1476 28.4219H31.8785C28.6558 28.4219 26.0262 25.7922 26.0262 22.5696V6.64963C26.0262 3.42697 28.6558 0.797287 31.8785 0.797287H60.1605C63.3832 0.797287 66.0129 3.42697 66.0129 6.64963V22.5696C66 25.7922 63.3703 28.4219 60.1476 28.4219ZM31.8785 4.54846C30.7183 4.54846 29.7773 5.48947 29.7773 6.64963V22.5696C29.7773 23.7297 30.7183 24.6707 31.8785 24.6707H60.1605C61.3207 24.6707 62.2617 23.7297 62.2617 22.5696V6.64963C62.2617 5.48947 61.3207 4.54846 60.1605 4.54846H31.8785Z" fill="#2D527C"/>
<path d="M44.4468 15.7118H43.8152V14.5645C43.8152 13.9071 43.1578 13.4817 42.1394 13.4817C41.1211 13.4817 40.4636 13.9071 40.4636 14.5645V15.7118H39.3164L42.5519 9.21488C42.6035 9.08597 42.6679 8.93129 42.6679 8.7766C42.6679 7.96449 41.5851 7.46176 40.9922 7.46176C40.3734 7.46176 39.8707 7.77113 39.5871 8.32543L35.2043 16.9493C35.0496 17.2329 35.0238 17.4778 35.0238 17.6067C35.0238 18.3286 35.5007 18.8184 36.1968 18.8184H40.4636V20.6489C40.4636 21.4094 41.3273 21.7446 42.1394 21.7446C42.9386 21.7446 43.8152 21.3965 43.8152 20.6489V18.8184H44.4468C45.014 18.8184 45.5425 18.0579 45.5425 17.2586C45.5425 16.511 45.1945 15.7118 44.4468 15.7118Z" fill="#2D527C"/>
<path d="M55.8937 15.7118H55.2621V14.5645C55.2621 13.9071 54.6046 13.4817 53.5863 13.4817C52.5679 13.4817 51.9105 13.9071 51.9105 14.5645V15.7118H50.7632L54.0117 9.21488C54.0632 9.08597 54.1277 8.93129 54.1277 8.7766C54.1277 7.96449 53.0449 7.46176 52.4519 7.46176C51.8332 7.46176 51.3304 7.77113 51.0468 8.32543L46.664 16.9493C46.5093 17.2329 46.4835 17.4778 46.4835 17.6067C46.4835 18.3286 46.9605 18.8184 47.6566 18.8184H51.9234V20.6489C51.9234 21.4094 52.7871 21.7446 53.5992 21.7446C54.4113 21.7446 55.2749 21.3965 55.2749 20.6489V18.8184H55.9066C56.4738 18.8184 57.0023 18.0579 57.0023 17.2586C57.0023 16.511 56.6542 15.7118 55.8937 15.7118Z" fill="#2D527C"/>
</svg>
