<svg width="64" height="62" viewBox="0 0 64 62" fill="none" xmlns="http://www.w3.org/2000/svg">
<path d="M54.025 47.7191H9.97501C8.96251 47.7191 8.15001 46.8812 8.15001 45.8371V43.8519C8.15001 30.291 18.85 19.2566 32 19.2566C34.4875 19.2566 36.9375 19.6562 39.2875 20.4297C40.25 20.7519 40.775 21.809 40.475 22.8015C40.1625 23.7941 39.1375 24.3355 38.175 24.0262C36.1875 23.3687 34.1125 23.0336 32 23.0336C20.8625 23.0336 11.8 32.3793 11.8 43.8648V43.968H52.2V43.8648C52.2 38.2703 50.075 33.0109 46.225 29.0664C45.5125 28.3316 45.5 27.1457 46.2125 26.398C46.925 25.6633 48.075 25.6504 48.8 26.3851C53.35 31.0387 55.8625 37.2391 55.8625 43.8519V45.8371C55.85 46.8812 55.0375 47.7191 54.025 47.7191Z" fill="#F0BF5F"/>
<path d="M32 22.5824C30.9875 22.5824 30.175 21.7445 30.175 20.7004V15.3637C30.175 14.3195 30.9875 13.4816 32 13.4816C33.0125 13.4816 33.825 14.3195 33.825 15.3637V20.7004C33.825 21.7445 33.0125 22.5824 32 22.5824Z" fill="#F0BF5F"/>
<path d="M36.4751 16.8074H27.5251C26.5126 16.8074 25.7001 15.9695 25.7001 14.9254C25.7001 13.8812 26.5126 13.0434 27.5251 13.0434H36.4751C37.4876 13.0434 38.3001 13.8812 38.3001 14.9254C38.3001 15.9695 37.4876 16.8074 36.4751 16.8074Z" fill="#F0BF5F"/>
<path d="M47.9875 45.8371H16V53.7649H47.9875V45.8371Z" fill="#CEE8FA"/>
<path d="M48 55.6469H16C14.9875 55.6469 14.175 54.809 14.175 53.7649V45.8371C14.175 44.793 14.9875 43.9551 16 43.9551H48C49.0125 43.9551 49.825 44.793 49.825 45.8371V53.7649C49.825 54.809 49 55.6469 48 55.6469ZM17.8375 51.8828H46.175V47.7192H17.8375V51.8828Z" fill="#F0BF5F"/>
<path d="M54.2375 59.8105H9.76249C7.63749 59.8105 5.91249 58.0316 5.91249 55.8402C5.91249 53.6488 7.63749 51.8699 9.76249 51.8699H54.2375C56.3625 51.8699 58.0875 53.6488 58.0875 55.8402C58.075 58.0316 56.3625 59.8105 54.2375 59.8105Z" fill="#CEE8FA"/>
<path d="M54.2375 61.6926H9.76251C6.63751 61.6926 4.08751 59.0758 4.08751 55.8402C4.08751 52.6047 6.62501 49.9879 9.76251 49.9879H54.2375C57.3625 49.9879 59.9125 52.6176 59.9125 55.8402C59.9 59.0758 57.3625 61.6926 54.2375 61.6926ZM9.76251 53.7649C8.65001 53.7649 7.75001 54.693 7.75001 55.8402C7.75001 56.9875 8.65001 57.9156 9.76251 57.9156H54.2375C55.35 57.9156 56.25 56.9875 56.25 55.8402C56.25 54.693 55.35 53.7649 54.2375 53.7649H9.76251Z" fill="#2D527C"/>
<path d="M32 7.73243C30.9875 7.73243 30.175 6.89454 30.175 5.8504V2.18947C30.175 1.14532 30.9875 0.307434 32 0.307434C33.0125 0.307434 33.825 1.14532 33.825 2.18947V5.8504C33.825 6.89454 33.0125 7.73243 32 7.73243Z" fill="#2D527C"/>
<path d="M62.175 33.3074H58.625C57.6125 33.3074 56.8 32.4695 56.8 31.4254C56.8 30.3813 57.6125 29.5434 58.625 29.5434H62.175C63.1875 29.5434 64 30.3813 64 31.4254C64 32.4695 63.1875 33.3074 62.175 33.3074Z" fill="#2D527C"/>
<path d="M5.375 33.3074H1.825C0.8125 33.3074 0 32.4695 0 31.4254C0 30.3813 0.8125 29.5434 1.825 29.5434H5.375C6.3875 29.5434 7.2 30.3813 7.2 31.4254C7.2 32.4695 6.3875 33.3074 5.375 33.3074Z" fill="#2D527C"/>
<path d="M49.5375 15.2219C49.075 15.2219 48.6 15.0414 48.25 14.6676C47.5375 13.9328 47.5375 12.734 48.25 11.9992L50.75 9.42111C51.4625 8.68634 52.625 8.68634 53.3375 9.42111C54.05 10.1559 54.05 11.3547 53.3375 12.0895L50.825 14.6805C50.475 15.0414 50 15.2219 49.5375 15.2219Z" fill="#2D527C"/>
<path d="M14.4625 15.2219C14 15.2219 13.525 15.0414 13.175 14.6676L10.6625 12.0766C9.95004 11.3418 9.95004 10.143 10.6625 9.40822C11.375 8.67345 12.5375 8.67345 13.25 9.40822L15.7625 11.9992C16.475 12.734 16.475 13.9328 15.7625 14.6676C15.4 15.0414 14.9375 15.2219 14.4625 15.2219Z" fill="#2D527C"/>
</svg>
